{
	"asset":{
		"generator":"Khronos glTF Blender I/O v3.6.27",
		"version":"2.0"
	},
	"extensionsUsed":[
		"KHR_materials_unlit"
	],
	"scene":0,
	"scenes":[
		{
			"name":"Scene",
			"nodes":[
				0
			]
		}
	],
	"nodes":[
		{
			"mesh":0,
			"name":"Luffy One Piece",
			"rotation":[
				-0.70710688829422,
				0,
				0,
				0.7071066498756409
			],
			"scale":[
				0.017501601949334145,
				0.017501603811979294,
				0.017501603811979294
			]
		}
	],
	"materials":[
		{
			"doubleSided":true,
			"extensions":{
				"KHR_materials_unlit":{}
			},
			"name":"03___Default",
			"pbrMetallicRoughness":{
				"baseColorTexture":{
					"index":0,
					"texCoord":0
				},
				"metallicFactor":0,
				"roughnessFactor":0.9
			}
		}
	],
	"meshes":[
		{
			"name":"Object_0",
			"primitives":[
				{
					"attributes":{
						"POSITION":0,
						"NORMAL":1,
						"TEXCOORD_0":2
					},
					"indices":3,
					"material":0
				}
			]
		}
	],
	"textures":[
		{
			"sampler":0,
			"source":0
		}
	],
	"images":[
		{
			"bufferView":4,
			"mimeType":"image/png",
			"name":"03___Default_baseColor"
		}
	],
	"accessors":[
		{
			"bufferView":0,
			"componentType":5126,
			"count":782,
			"max":[
				55.060699462890625,
				17.868099212646484,
				140.5402069091797
			],
			"min":[
				-56.352500915527344,
				-13.6766996383667,
				1.260699987411499
			],
			"type":"VEC3"
		},
		{
			"bufferView":1,
			"componentType":5126,
			"count":782,
			"type":"VEC3"
		},
		{
			"bufferView":2,
			"componentType":5126,
			"count":782,
			"type":"VEC2"
		},
		{
			"bufferView":3,
			"componentType":5123,
			"count":1740,
			"type":"SCALAR"
		}
	],
	"bufferViews":[
		{
			"buffer":0,
			"byteLength":9384,
			"byteOffset":0,
			"target":34962
		},
		{
			"buffer":0,
			"byteLength":9384,
			"byteOffset":9384,
			"target":34962
		},
		{
			"buffer":0,
			"byteLength":6256,
			"byteOffset":18768,
			"target":34962
		},
		{
			"buffer":0,
			"byteLength":3480,
			"byteOffset":25024,
			"target":34963
		},
		{
			"buffer":0,
			"byteLength":44745,
			"byteOffset":28504
		}
	],
	"samplers":[
		{
			"magFilter":9729,
			"minFilter":9987
		}
	],
	"buffers":[
		{
			"byteLength":73252,
			"uri":"data:application/octet-stream;base64,"
		}
	]
}
